<svg viewBox="0 0 126 150" xmlns="http://www.w3.org/2000/svg"><path d="m0 0h126v150h-126z" fill="none"/><path d="m62.94 147.07c-5.93 0-10.52-5.35-13.26-8.55-.46-.54-.87-1.01-1.22-1.39l-.48-.51c-1.57-1.66-4.77-5.04-7.81-8.87-3.11-.84-5.54-2.57-7.28-4.18-.17.21-.39.39-.66.54-.76.41-1.68.32-2.38-.24-6.3-4.6-9.83-15.44-11.71-24.2-.47-.15-.99-.38-1.49-.72-4.18 1.99-9.04 2.75-13.86 2.14-.83-.11-1.55-.74-1.75-1.55-.35-1.45.6-2.12 2.49-3.45.96-.67 2.32-1.63 3.68-2.74-1.29.22-2.73.35-4.36.33-.83 0-1.63-.55-1.92-1.34-.49-1.36.51-2.22 1.11-2.73 1.63-1.4 6.54-5.6 9.13-15.18l-1.05-6.83c-2.36.43-3.82.38-4.38-1.19-.08-.23-.12-.47-.11-.71.02-1 .47-1.63 3.48-4.63-2.12-13.73-3.33-21.5-3.59-23.09-.34-2.06-.8-7.14 2.09-10.4.04-.05.08-.1.12-.15l4.38-4.9c1.35-1.51 3.29-2.38 5.31-2.38h7.44c2.33-3.03 5.87-6.9 10.39-9.6 9.5-5.69 16.37-7.72 24.44-7.23l8.33-.47h.22c.46.02 11.46.64 21.77 5.39 5.95 2.75 10.56 6.65 14.05 11.91h5c2.03 0 3.96.87 5.31 2.38l4.38 4.9s.08.09.12.15c2.89 3.26 2.43 8.34 2.09 10.4-.29 1.78-1.81 11.57-4.17 26.9.79 2.14 1.73 4.48 2.8 7.15.67 1.67 1.4 3.5 2.2 5.51.06.15.1.31.12.47.12.94-.33 1.81-1.16 2.24-1.52.78-4.05-.62-6.01-2.04l-.47 3.07c.55 3.63.57 7.5.06 12.85-1.09 11.42-9.67 25.47-10.04 26.07-.37.61-1.02.98-1.76.95-.71-.02-1.36-.42-1.7-1.05 0 0 0 0 0-.01-1.3 1.78-3.17 3.83-5.7 5.53-.62.41-1.41.45-2.06.1-.48-.26-.83-.7-.98-1.22-1.52 1.33-3.51 2.6-6.05 3.33-3.7 4.88-7.89 9.26-10.65 11.79l-.74.69c-2.88 2.69-7.23 6.76-11.68 6.76z" fill="#fafafa"/><path d="m2.88 91.68c7.96.07 11.18-3.48 11.18-3.48-1.73 5.39-11.9 10.78-11 10.91 6.25.79 12.07-.91 16.23-4.08 1.44 8.33 4.8 22.16 11.82 27.28.66.53.13-2.75.13-3.48.54.35 3.92 5.81 10.08 7.14 3.11 2.93 39.58 4.27 43.52.1 6.98-1.66 9.62-8.11 9.77-7.54.32 1.24-.6 3.39-.62 5.43 5.28-3.55 7.4-8.81 7.4-8.81.5 1.21.53 2.8 1.18 4.01 0 0 8.69-14.12 9.75-25.21 1.25-13.1-1.09-14.49-1.94-22.84 3.58 5.17 9.68 8.29 9.53 7.17-5.28-13.44-7.82-18.19-8.74-29.14-1.83-11.89-2.4-16.56-7.18-25.23-2.6-4.7-6.65-10.08-14.82-13.84-10.07-4.64-21.03-5.21-21.03-5.21l-8.45.48c-8.02-.51-14.49 1.61-23.41 6.94-8.45 5.06-13.4 14.5-13.4 14.5s-6.63 10.43-6.98 29.96c.04.88-8.24 8.17-8.26 9.02.15.42 6.06-.88 7.08-1.25-1.11 21.26-12.79 27.17-11.84 27.18z"/><path d="m32.94 90.11c1.52 8.8-.05 20.78 2.56 26.71 3.24 7.38 12.01 16.38 14.42 18.95 2.34 2.49 7.07 9.31 13.02 9.31 4.06 0 8.67-4.72 11.07-6.93 5.17-4.75 13.19-13.95 15.77-20.25 2.85-6.97.93-17.54 4.78-28.1 2.9-7.96 2.65-11.19 2.65-11.19.98-8.35.96-28.81.96-28.81 0-1.06.23-9.33-3.29-7.48-20.2 10.59-34.94 13.3-34.09 12.18.77-1.02 10.11-10.57 7.15-8.8-18.75 11.24-37.77 13.5-37.77 13.5-.94 11.54-.9 13.01-.32 19.46.52 5.81 2.55 8.35 3.09 11.47z" fill="#e1e6eb"/><path d="m110.97 29.78-4.55 29.55 6.61 14.83 2.06-18.39 1.8-13.18-.46-12.24z" fill="#373c41"/><path d="m15.51 29.78 4.55 29.55-6.61 14.83-2.06-18.39-1.8-13.18.46-12.24z" fill="#373c41"/><path d="m112.87 23.87c-.97-1.09-2.36-1.71-3.82-1.71h-91.62c-1.46 0-2.85.62-3.82 1.71l-4.38 4.9 27.19.66 26.82-.42 26.82.42 27.19-.66z" fill="#b9bec3"/><path d="m112.97 27.09h-99.46c-5.84 0-6.76 5.97-6.01 10.57.76 4.6 8.87 57.38 8.87 57.38.46 2.93 3.59 2.95 3.59 2.95s-.38-6.46-.53-10.11-2.66-15.61-4.12-19.11c0 0-3.98-26.77-4.71-31.29-.73-4.53.45-7.1 3.5-7.1h98.25c3.05 0 4.23 2.58 3.5 7.1-.73 4.53-4.71 31.29-4.71 31.29-1.46 3.5-3.97 15.46-4.12 19.11s-.53 10.11-.53 10.11 3.13-.02 3.59-2.95c0 0 8.11-52.79 8.87-57.38.76-4.6-.17-10.57-6.01-10.57z" fill="#9ba0a5"/><g fill="#1973f0"><path d="m32.94 90.11c-.54-3.12-2.57-5.66-3.09-11.47-.53-5.94-.61-7.67.12-16.93s-3.21-5.86-8.72-5.08c-6.24.89-6.42 8.96-5.92 12.15l4.64 29.22c1.31 5.11 4.54 7.75 7.83 7.71 3.93-.04 5.55-2.38 6.01-2.98-.11-4.11-.16-8.5-.87-12.62z"/><path d="m105.89 56.24c-4.96-.83-7.84 5.05-7.84 5.05s-.03 7.28-1.08 12.87c-1.09 5.78-3.69 14.81-4.09 17.4-.64 4.11-.9 10.28-.9 10.28s2.17 3.5 6.96 3.5c4.25 0 6.26-2.24 7.58-7.35l4.64-29.22c.53-3.44.95-11.5-5.27-12.53z"/></g></svg>